<?xml version="1.0" standalone="no"?>
<!DOCTYPE svg PUBLIC "-//W3C//DTD SVG 20010904//EN"
 "http://www.w3.org/TR/2001/REC-SVG-20010904/DTD/svg10.dtd">
<svg version="1.0" xmlns="http://www.w3.org/2000/svg"
 width="700.000000pt" height="700.000000pt" viewBox="0 0 700.000000 700.000000"
 preserveAspectRatio="xMidYMid meet">
<metadata>
Created by potrace 1.11, written by Peter Selinger 2001-2013
</metadata>
<g transform="translate(0.000000,700.000000) scale(0.100000,-0.100000)"
fill="#000000" stroke="none">
<path d="M470 4558 c0 -220 1 -238 18 -239 9 0 172 -1 362 -2 l345 -2 1 -1049
c1 -690 5 -1051 12 -1055 6 -3 140 -6 299 -6 l288 0 2 895 c1 492 3 968 3
1057 l0 161 313 1 c171 0 336 0 365 0 l52 1 -2 237 -3 238 -1028 0 -1027 0 0
-237z"/>
<path d="M2765 4792 c-4 -4 13 -64 57 -202 16 -52 59 -189 94 -305 36 -115 73
-237 83 -270 11 -33 36 -114 56 -180 20 -66 40 -131 45 -145 4 -14 24 -77 44
-140 19 -63 85 -277 146 -475 61 -198 127 -412 146 -475 20 -63 39 -126 44
-140 5 -14 23 -72 40 -130 18 -58 37 -109 42 -115 5 -6 110 -10 273 -10 l265
0 9 25 c6 14 26 79 46 145 57 186 107 350 183 595 114 368 290 942 299 979 11
41 -8 97 213 -634 83 -275 166 -551 186 -612 19 -62 37 -120 39 -130 2 -10 20
-70 40 -133 20 -63 38 -122 40 -130 2 -8 4 -16 5 -17 2 -2 3 -6 4 -10 1 -5 6
-23 10 -40 4 -18 11 -34 14 -34 4 -1 125 -2 270 -3 168 -1 266 2 271 9 5 5 23
57 40 115 18 58 50 161 71 230 146 469 184 590 195 630 7 25 63 207 125 405
62 198 118 380 125 405 7 25 43 142 80 260 37 118 85 274 107 345 22 72 43
142 48 157 5 15 5 29 2 31 -20 10 -511 -1 -543 -11 -19 -7 -52 -29 -72 -50
-34 -35 -40 -52 -96 -262 -83 -313 -98 -369 -132 -500 -33 -127 -80 -304 -110
-420 -45 -169 -78 -296 -83 -320 -29 -147 -37 -184 -40 -188 -2 -2 -9 18 -15
45 -12 57 -48 180 -126 433 -31 102 -68 221 -82 265 -13 44 -33 107 -43 140
-10 33 -37 121 -60 195 -23 74 -50 162 -60 195 -118 388 -123 401 -173 439
-43 33 -99 42 -237 40 -158 -2 -187 -12 -237 -77 -29 -39 -44 -80 -123 -342
-10 -33 -53 -170 -95 -305 -42 -135 -94 -303 -116 -375 -23 -71 -48 -150 -56
-175 -8 -25 -16 -52 -18 -61 -2 -9 -11 -39 -20 -65 -29 -87 -95 -326 -95 -348
-1 -36 -17 3 -25 59 -5 41 -55 242 -96 395 -5 19 -11 42 -13 50 -2 8 -16 60
-30 115 -15 55 -28 107 -30 115 -2 8 -16 60 -31 115 -14 55 -28 108 -30 117
-2 10 -15 59 -29 110 -31 115 -56 208 -61 228 -2 8 -18 69 -35 135 -18 66 -36
139 -42 161 -13 58 -69 121 -121 135 -38 11 -572 20 -582 11z"/>
</g>
</svg>
